<svg xmlns="http://www.w3.org/2000/svg" xmlns:xlink="http://www.w3.org/1999/xlink" version="1.1" x="0px" y="0px" viewBox="5.0 -10.0 100.0 135.0" style="enable-background:new 0 0 100 100;" xml:space="preserve" height="100px" width="100px">
<g id="Layer_1">
</g>
<g id="Layer_2">
	<g>
		<path style="fill:#231F20;" d="M48.465,7.692c-28.781,0-43.17,14.251-43.17,42.752s14.389,42.751,43.17,42.751    c28.825,0,43.238-14.25,43.238-42.751S77.29,7.692,48.465,7.692z M73.686,76.461c-5.288,5.497-13.694,8.246-25.221,8.246    c-11.436,0-19.81-2.748-25.12-8.246c-5.31-5.496-7.965-14.169-7.965-26.017c0-11.849,2.655-20.522,7.965-26.018    c5.31-5.497,13.683-8.246,25.12-8.246c11.527,0,19.933,2.749,25.221,8.246c5.287,5.496,7.931,14.169,7.931,26.018    C81.617,62.292,78.973,70.965,73.686,76.461z"/>
		<path style="fill:#231F20;" d="M62.535,28.811H34.462c-2.879,0-5.213,2.334-5.213,5.213s2.334,5.213,5.213,5.213h28.072    c2.879,0,5.213-2.334,5.213-5.213S65.413,28.811,62.535,28.811z"/>
		<path style="fill:#231F20;" d="M62.535,45.231H34.462c-2.879,0-5.213,2.334-5.213,5.213c0,2.879,2.334,5.213,5.213,5.213h28.072    c2.879,0,5.213-2.334,5.213-5.213C67.747,47.565,65.413,45.231,62.535,45.231z"/>
		<path style="fill:#231F20;" d="M62.535,61.651H34.462c-2.879,0-5.213,2.334-5.213,5.213c0,2.879,2.334,5.213,5.213,5.213h28.072    c2.879,0,5.213-2.334,5.213-5.213C67.747,63.985,65.413,61.651,62.535,61.651z"/>
	</g>
</g>
</svg>